<mxfile host="app.diagrams.net" modified="2021-03-17T17:55:50.544Z" agent="5.0 (X11; Linux x86_64) AppleWebKit/537.36 (KHTML, like Gecko) Chrome/89.0.4389.82 Safari/537.36" etag="BbAjKOnJZiha9KpsYRUI" version="14.4.8" type="github" pages="4">
  <diagram id="C5RBs43oDa-KdzZeNtuy" name="Action_Class_Flowchart">
    <mxGraphModel dx="1350" dy="806" grid="1" gridSize="10" guides="1" tooltips="1" connect="1" arrows="1" fold="1" page="1" pageScale="1" pageWidth="827" pageHeight="1169" math="0" shadow="0">
      <root>
        <mxCell id="WIyWlLk6GJQsqaUBKTNV-0" />
        <mxCell id="WIyWlLk6GJQsqaUBKTNV-1" parent="WIyWlLk6GJQsqaUBKTNV-0" />
        <mxCell id="Hz21LZMQ4vUw0pX6ZqhJ-26" value="" style="edgeStyle=orthogonalEdgeStyle;rounded=0;orthogonalLoop=1;jettySize=auto;html=1;" edge="1" parent="WIyWlLk6GJQsqaUBKTNV-1" source="Hz21LZMQ4vUw0pX6ZqhJ-4" target="Hz21LZMQ4vUw0pX6ZqhJ-25">
          <mxGeometry relative="1" as="geometry" />
        </mxCell>
        <mxCell id="Hz21LZMQ4vUw0pX6ZqhJ-4" value="Charge(&amp;amp;State)" style="strokeWidth=2;html=1;shape=mxgraph.flowchart.start_2;whiteSpace=wrap;" vertex="1" parent="WIyWlLk6GJQsqaUBKTNV-1">
          <mxGeometry x="95" y="10" width="100" height="100" as="geometry" />
        </mxCell>
        <mxCell id="Hz21LZMQ4vUw0pX6ZqhJ-32" value="Yes" style="edgeStyle=orthogonalEdgeStyle;rounded=0;orthogonalLoop=1;jettySize=auto;html=1;entryX=0;entryY=0.5;entryDx=0;entryDy=0;entryPerimeter=0;" edge="1" parent="WIyWlLk6GJQsqaUBKTNV-1" source="Hz21LZMQ4vUw0pX6ZqhJ-20" target="Hz21LZMQ4vUw0pX6ZqhJ-39">
          <mxGeometry relative="1" as="geometry">
            <mxPoint x="320" y="360" as="targetPoint" />
            <Array as="points" />
          </mxGeometry>
        </mxCell>
        <mxCell id="Hz21LZMQ4vUw0pX6ZqhJ-42" value="No" style="edgeStyle=orthogonalEdgeStyle;rounded=0;orthogonalLoop=1;jettySize=auto;html=1;" edge="1" parent="WIyWlLk6GJQsqaUBKTNV-1" source="Hz21LZMQ4vUw0pX6ZqhJ-20" target="Hz21LZMQ4vUw0pX6ZqhJ-41">
          <mxGeometry relative="1" as="geometry" />
        </mxCell>
        <mxCell id="Hz21LZMQ4vUw0pX6ZqhJ-20" value="If State==Charging" style="strokeWidth=2;html=1;shape=mxgraph.flowchart.decision;whiteSpace=wrap;" vertex="1" parent="WIyWlLk6GJQsqaUBKTNV-1">
          <mxGeometry x="70" y="330" width="150" height="120" as="geometry" />
        </mxCell>
        <mxCell id="Hz21LZMQ4vUw0pX6ZqhJ-37" value="Yes" style="edgeStyle=orthogonalEdgeStyle;rounded=0;orthogonalLoop=1;jettySize=auto;html=1;" edge="1" parent="WIyWlLk6GJQsqaUBKTNV-1" source="Hz21LZMQ4vUw0pX6ZqhJ-25" target="Hz21LZMQ4vUw0pX6ZqhJ-27">
          <mxGeometry relative="1" as="geometry" />
        </mxCell>
        <mxCell id="Hz21LZMQ4vUw0pX6ZqhJ-38" value="No" style="edgeStyle=orthogonalEdgeStyle;rounded=0;orthogonalLoop=1;jettySize=auto;html=1;" edge="1" parent="WIyWlLk6GJQsqaUBKTNV-1" source="Hz21LZMQ4vUw0pX6ZqhJ-25" target="Hz21LZMQ4vUw0pX6ZqhJ-20">
          <mxGeometry relative="1" as="geometry" />
        </mxCell>
        <mxCell id="Hz21LZMQ4vUw0pX6ZqhJ-25" value="If State==Discharging" style="strokeWidth=2;html=1;shape=mxgraph.flowchart.decision;whiteSpace=wrap;" vertex="1" parent="WIyWlLk6GJQsqaUBKTNV-1">
          <mxGeometry x="80" y="150" width="130" height="110" as="geometry" />
        </mxCell>
        <mxCell id="ytOCcAaxQ1JO5uOS0aCN-49" value="" style="edgeStyle=orthogonalEdgeStyle;rounded=0;orthogonalLoop=1;jettySize=auto;html=1;" edge="1" parent="WIyWlLk6GJQsqaUBKTNV-1" source="Hz21LZMQ4vUw0pX6ZqhJ-27" target="ytOCcAaxQ1JO5uOS0aCN-48">
          <mxGeometry relative="1" as="geometry" />
        </mxCell>
        <mxCell id="Hz21LZMQ4vUw0pX6ZqhJ-27" value="Stop_Discharging" style="whiteSpace=wrap;html=1;strokeWidth=2;" vertex="1" parent="WIyWlLk6GJQsqaUBKTNV-1">
          <mxGeometry x="284" y="175" width="120" height="60" as="geometry" />
        </mxCell>
        <mxCell id="Hz21LZMQ4vUw0pX6ZqhJ-44" value="Yes" style="edgeStyle=orthogonalEdgeStyle;rounded=0;orthogonalLoop=1;jettySize=auto;html=1;" edge="1" parent="WIyWlLk6GJQsqaUBKTNV-1" source="Hz21LZMQ4vUw0pX6ZqhJ-39" target="Hz21LZMQ4vUw0pX6ZqhJ-43">
          <mxGeometry relative="1" as="geometry" />
        </mxCell>
        <mxCell id="Hz21LZMQ4vUw0pX6ZqhJ-51" value="No" style="edgeStyle=orthogonalEdgeStyle;rounded=0;orthogonalLoop=1;jettySize=auto;html=1;exitX=0.5;exitY=1;exitDx=0;exitDy=0;exitPerimeter=0;entryX=0;entryY=0.5;entryDx=0;entryDy=0;" edge="1" parent="WIyWlLk6GJQsqaUBKTNV-1" source="Hz21LZMQ4vUw0pX6ZqhJ-39" target="Hz21LZMQ4vUw0pX6ZqhJ-47">
          <mxGeometry relative="1" as="geometry" />
        </mxCell>
        <mxCell id="Hz21LZMQ4vUw0pX6ZqhJ-39" value="If Pressure &amp;lt; Max_Pressure" style="strokeWidth=2;html=1;shape=mxgraph.flowchart.decision;whiteSpace=wrap;" vertex="1" parent="WIyWlLk6GJQsqaUBKTNV-1">
          <mxGeometry x="294" y="340" width="100" height="100" as="geometry" />
        </mxCell>
        <mxCell id="ytOCcAaxQ1JO5uOS0aCN-61" value="" style="edgeStyle=orthogonalEdgeStyle;rounded=0;orthogonalLoop=1;jettySize=auto;html=1;" edge="1" parent="WIyWlLk6GJQsqaUBKTNV-1" source="Hz21LZMQ4vUw0pX6ZqhJ-41" target="ytOCcAaxQ1JO5uOS0aCN-57">
          <mxGeometry relative="1" as="geometry" />
        </mxCell>
        <mxCell id="Hz21LZMQ4vUw0pX6ZqhJ-41" value="State == Off" style="rhombus;whiteSpace=wrap;html=1;strokeWidth=2;" vertex="1" parent="WIyWlLk6GJQsqaUBKTNV-1">
          <mxGeometry x="65" y="537.5" width="160" height="125" as="geometry" />
        </mxCell>
        <mxCell id="Hz21LZMQ4vUw0pX6ZqhJ-43" value="End Loop" style="strokeWidth=2;html=1;shape=mxgraph.flowchart.terminator;whiteSpace=wrap;" vertex="1" parent="WIyWlLk6GJQsqaUBKTNV-1">
          <mxGeometry x="500" y="360" width="100" height="60" as="geometry" />
        </mxCell>
        <mxCell id="Hz21LZMQ4vUw0pX6ZqhJ-52" style="edgeStyle=orthogonalEdgeStyle;rounded=0;orthogonalLoop=1;jettySize=auto;html=1;exitX=1;exitY=0.5;exitDx=0;exitDy=0;" edge="1" parent="WIyWlLk6GJQsqaUBKTNV-1" source="Hz21LZMQ4vUw0pX6ZqhJ-47" target="Hz21LZMQ4vUw0pX6ZqhJ-43">
          <mxGeometry relative="1" as="geometry" />
        </mxCell>
        <mxCell id="Hz21LZMQ4vUw0pX6ZqhJ-47" value="Stop_Charging" style="whiteSpace=wrap;html=1;strokeWidth=2;" vertex="1" parent="WIyWlLk6GJQsqaUBKTNV-1">
          <mxGeometry x="380" y="470" width="120" height="60" as="geometry" />
        </mxCell>
        <mxCell id="ytOCcAaxQ1JO5uOS0aCN-3" value="" style="edgeStyle=orthogonalEdgeStyle;rounded=0;orthogonalLoop=1;jettySize=auto;html=1;" edge="1" parent="WIyWlLk6GJQsqaUBKTNV-1" source="ytOCcAaxQ1JO5uOS0aCN-1" target="ytOCcAaxQ1JO5uOS0aCN-2">
          <mxGeometry relative="1" as="geometry" />
        </mxCell>
        <mxCell id="ytOCcAaxQ1JO5uOS0aCN-1" value="Stop_Charging()" style="strokeWidth=2;html=1;shape=mxgraph.flowchart.start_2;whiteSpace=wrap;" vertex="1" parent="WIyWlLk6GJQsqaUBKTNV-1">
          <mxGeometry x="80" y="900" width="100" height="100" as="geometry" />
        </mxCell>
        <mxCell id="ytOCcAaxQ1JO5uOS0aCN-5" value="Yes" style="edgeStyle=orthogonalEdgeStyle;rounded=0;orthogonalLoop=1;jettySize=auto;html=1;" edge="1" parent="WIyWlLk6GJQsqaUBKTNV-1" source="ytOCcAaxQ1JO5uOS0aCN-2" target="ytOCcAaxQ1JO5uOS0aCN-4">
          <mxGeometry relative="1" as="geometry" />
        </mxCell>
        <mxCell id="ytOCcAaxQ1JO5uOS0aCN-7" value="No" style="edgeStyle=orthogonalEdgeStyle;rounded=0;orthogonalLoop=1;jettySize=auto;html=1;exitX=1;exitY=0.5;exitDx=0;exitDy=0;entryX=0.5;entryY=0;entryDx=0;entryDy=0;entryPerimeter=0;" edge="1" parent="WIyWlLk6GJQsqaUBKTNV-1" source="ytOCcAaxQ1JO5uOS0aCN-2" target="ytOCcAaxQ1JO5uOS0aCN-6">
          <mxGeometry relative="1" as="geometry" />
        </mxCell>
        <mxCell id="ytOCcAaxQ1JO5uOS0aCN-2" value="If Cycle_Time Reached" style="rhombus;whiteSpace=wrap;html=1;strokeWidth=2;" vertex="1" parent="WIyWlLk6GJQsqaUBKTNV-1">
          <mxGeometry x="75" y="1040" width="110" height="100" as="geometry" />
        </mxCell>
        <mxCell id="ytOCcAaxQ1JO5uOS0aCN-9" value="" style="edgeStyle=orthogonalEdgeStyle;rounded=0;orthogonalLoop=1;jettySize=auto;html=1;" edge="1" parent="WIyWlLk6GJQsqaUBKTNV-1" source="ytOCcAaxQ1JO5uOS0aCN-4" target="ytOCcAaxQ1JO5uOS0aCN-8">
          <mxGeometry relative="1" as="geometry" />
        </mxCell>
        <mxCell id="ytOCcAaxQ1JO5uOS0aCN-4" value="SSR.off()" style="whiteSpace=wrap;html=1;strokeWidth=2;" vertex="1" parent="WIyWlLk6GJQsqaUBKTNV-1">
          <mxGeometry x="70" y="1210" width="120" height="60" as="geometry" />
        </mxCell>
        <mxCell id="ytOCcAaxQ1JO5uOS0aCN-6" value="End Loop" style="strokeWidth=2;html=1;shape=mxgraph.flowchart.terminator;whiteSpace=wrap;" vertex="1" parent="WIyWlLk6GJQsqaUBKTNV-1">
          <mxGeometry x="220" y="1140" width="100" height="60" as="geometry" />
        </mxCell>
        <mxCell id="ytOCcAaxQ1JO5uOS0aCN-11" value="" style="edgeStyle=orthogonalEdgeStyle;rounded=0;orthogonalLoop=1;jettySize=auto;html=1;" edge="1" parent="WIyWlLk6GJQsqaUBKTNV-1" source="ytOCcAaxQ1JO5uOS0aCN-8" target="ytOCcAaxQ1JO5uOS0aCN-10">
          <mxGeometry relative="1" as="geometry" />
        </mxCell>
        <mxCell id="ytOCcAaxQ1JO5uOS0aCN-8" value="Cycle_Time = 0" style="whiteSpace=wrap;html=1;strokeWidth=2;" vertex="1" parent="WIyWlLk6GJQsqaUBKTNV-1">
          <mxGeometry x="70" y="1310" width="120" height="60" as="geometry" />
        </mxCell>
        <mxCell id="ytOCcAaxQ1JO5uOS0aCN-13" value="" style="edgeStyle=orthogonalEdgeStyle;rounded=0;orthogonalLoop=1;jettySize=auto;html=1;" edge="1" parent="WIyWlLk6GJQsqaUBKTNV-1" source="ytOCcAaxQ1JO5uOS0aCN-10" target="ytOCcAaxQ1JO5uOS0aCN-12">
          <mxGeometry relative="1" as="geometry" />
        </mxCell>
        <mxCell id="ytOCcAaxQ1JO5uOS0aCN-10" value="State=Off;" style="whiteSpace=wrap;html=1;strokeWidth=2;" vertex="1" parent="WIyWlLk6GJQsqaUBKTNV-1">
          <mxGeometry x="70" y="1400" width="120" height="60" as="geometry" />
        </mxCell>
        <mxCell id="ytOCcAaxQ1JO5uOS0aCN-12" value="End Loop" style="strokeWidth=2;html=1;shape=mxgraph.flowchart.terminator;whiteSpace=wrap;" vertex="1" parent="WIyWlLk6GJQsqaUBKTNV-1">
          <mxGeometry x="80" y="1500" width="100" height="60" as="geometry" />
        </mxCell>
        <mxCell id="ytOCcAaxQ1JO5uOS0aCN-16" value="" style="edgeStyle=orthogonalEdgeStyle;rounded=0;orthogonalLoop=1;jettySize=auto;html=1;" edge="1" parent="WIyWlLk6GJQsqaUBKTNV-1" source="ytOCcAaxQ1JO5uOS0aCN-14" target="ytOCcAaxQ1JO5uOS0aCN-15">
          <mxGeometry relative="1" as="geometry" />
        </mxCell>
        <mxCell id="ytOCcAaxQ1JO5uOS0aCN-14" value="Stop_Discharging()" style="strokeWidth=2;html=1;shape=mxgraph.flowchart.start_2;whiteSpace=wrap;" vertex="1" parent="WIyWlLk6GJQsqaUBKTNV-1">
          <mxGeometry x="350" y="895" width="120" height="110" as="geometry" />
        </mxCell>
        <mxCell id="ytOCcAaxQ1JO5uOS0aCN-44" value="" style="edgeStyle=orthogonalEdgeStyle;rounded=0;orthogonalLoop=1;jettySize=auto;html=1;" edge="1" parent="WIyWlLk6GJQsqaUBKTNV-1" source="ytOCcAaxQ1JO5uOS0aCN-15" target="ytOCcAaxQ1JO5uOS0aCN-43">
          <mxGeometry relative="1" as="geometry" />
        </mxCell>
        <mxCell id="ytOCcAaxQ1JO5uOS0aCN-15" value="Valve1.Close()" style="whiteSpace=wrap;html=1;strokeWidth=2;" vertex="1" parent="WIyWlLk6GJQsqaUBKTNV-1">
          <mxGeometry x="350" y="1080" width="120" height="60" as="geometry" />
        </mxCell>
        <mxCell id="ytOCcAaxQ1JO5uOS0aCN-17" value="End Loop" style="strokeWidth=2;html=1;shape=mxgraph.flowchart.terminator;whiteSpace=wrap;" vertex="1" parent="WIyWlLk6GJQsqaUBKTNV-1">
          <mxGeometry x="360" y="1310" width="100" height="60" as="geometry" />
        </mxCell>
        <mxCell id="ytOCcAaxQ1JO5uOS0aCN-24" value="" style="edgeStyle=orthogonalEdgeStyle;rounded=0;orthogonalLoop=1;jettySize=auto;html=1;" edge="1" parent="WIyWlLk6GJQsqaUBKTNV-1" source="ytOCcAaxQ1JO5uOS0aCN-19" target="ytOCcAaxQ1JO5uOS0aCN-23">
          <mxGeometry relative="1" as="geometry" />
        </mxCell>
        <mxCell id="ytOCcAaxQ1JO5uOS0aCN-19" value="Start_Charging()" style="strokeWidth=2;html=1;shape=mxgraph.flowchart.start_2;whiteSpace=wrap;" vertex="1" parent="WIyWlLk6GJQsqaUBKTNV-1">
          <mxGeometry x="540" y="900" width="100" height="100" as="geometry" />
        </mxCell>
        <mxCell id="ytOCcAaxQ1JO5uOS0aCN-26" value="Yes" style="edgeStyle=orthogonalEdgeStyle;rounded=0;orthogonalLoop=1;jettySize=auto;html=1;" edge="1" parent="WIyWlLk6GJQsqaUBKTNV-1" source="ytOCcAaxQ1JO5uOS0aCN-23" target="ytOCcAaxQ1JO5uOS0aCN-25">
          <mxGeometry relative="1" as="geometry" />
        </mxCell>
        <mxCell id="ytOCcAaxQ1JO5uOS0aCN-34" value="No" style="edgeStyle=orthogonalEdgeStyle;rounded=0;orthogonalLoop=1;jettySize=auto;html=1;exitX=1;exitY=0.5;exitDx=0;exitDy=0;exitPerimeter=0;entryX=0.5;entryY=0;entryDx=0;entryDy=0;entryPerimeter=0;" edge="1" parent="WIyWlLk6GJQsqaUBKTNV-1" source="ytOCcAaxQ1JO5uOS0aCN-23" target="ytOCcAaxQ1JO5uOS0aCN-33">
          <mxGeometry relative="1" as="geometry" />
        </mxCell>
        <mxCell id="ytOCcAaxQ1JO5uOS0aCN-23" value="If Cycle_Time Reached" style="strokeWidth=2;html=1;shape=mxgraph.flowchart.decision;whiteSpace=wrap;" vertex="1" parent="WIyWlLk6GJQsqaUBKTNV-1">
          <mxGeometry x="540" y="1040" width="100" height="100" as="geometry" />
        </mxCell>
        <mxCell id="ytOCcAaxQ1JO5uOS0aCN-28" value="" style="edgeStyle=orthogonalEdgeStyle;rounded=0;orthogonalLoop=1;jettySize=auto;html=1;" edge="1" parent="WIyWlLk6GJQsqaUBKTNV-1" source="ytOCcAaxQ1JO5uOS0aCN-25" target="ytOCcAaxQ1JO5uOS0aCN-27">
          <mxGeometry relative="1" as="geometry" />
        </mxCell>
        <mxCell id="ytOCcAaxQ1JO5uOS0aCN-25" value="SSR.On()" style="whiteSpace=wrap;html=1;strokeWidth=2;" vertex="1" parent="WIyWlLk6GJQsqaUBKTNV-1">
          <mxGeometry x="530" y="1200" width="120" height="60" as="geometry" />
        </mxCell>
        <mxCell id="ytOCcAaxQ1JO5uOS0aCN-30" value="" style="edgeStyle=orthogonalEdgeStyle;rounded=0;orthogonalLoop=1;jettySize=auto;html=1;" edge="1" parent="WIyWlLk6GJQsqaUBKTNV-1" source="ytOCcAaxQ1JO5uOS0aCN-27" target="ytOCcAaxQ1JO5uOS0aCN-29">
          <mxGeometry relative="1" as="geometry" />
        </mxCell>
        <mxCell id="ytOCcAaxQ1JO5uOS0aCN-27" value="Cycle_Time = 0" style="whiteSpace=wrap;html=1;strokeWidth=2;" vertex="1" parent="WIyWlLk6GJQsqaUBKTNV-1">
          <mxGeometry x="530" y="1300" width="120" height="60" as="geometry" />
        </mxCell>
        <mxCell id="ytOCcAaxQ1JO5uOS0aCN-32" value="" style="edgeStyle=orthogonalEdgeStyle;rounded=0;orthogonalLoop=1;jettySize=auto;html=1;" edge="1" parent="WIyWlLk6GJQsqaUBKTNV-1" source="ytOCcAaxQ1JO5uOS0aCN-29" target="ytOCcAaxQ1JO5uOS0aCN-31">
          <mxGeometry relative="1" as="geometry" />
        </mxCell>
        <mxCell id="ytOCcAaxQ1JO5uOS0aCN-29" value="State=Charging;" style="whiteSpace=wrap;html=1;strokeWidth=2;" vertex="1" parent="WIyWlLk6GJQsqaUBKTNV-1">
          <mxGeometry x="530" y="1400" width="120" height="60" as="geometry" />
        </mxCell>
        <mxCell id="ytOCcAaxQ1JO5uOS0aCN-31" value="End Loop" style="strokeWidth=2;html=1;shape=mxgraph.flowchart.terminator;whiteSpace=wrap;" vertex="1" parent="WIyWlLk6GJQsqaUBKTNV-1">
          <mxGeometry x="540" y="1500" width="100" height="60" as="geometry" />
        </mxCell>
        <mxCell id="ytOCcAaxQ1JO5uOS0aCN-33" value="End Loop" style="strokeWidth=2;html=1;shape=mxgraph.flowchart.terminator;whiteSpace=wrap;" vertex="1" parent="WIyWlLk6GJQsqaUBKTNV-1">
          <mxGeometry x="660" y="1130" width="100" height="60" as="geometry" />
        </mxCell>
        <mxCell id="ytOCcAaxQ1JO5uOS0aCN-37" value="" style="edgeStyle=orthogonalEdgeStyle;rounded=0;orthogonalLoop=1;jettySize=auto;html=1;" edge="1" parent="WIyWlLk6GJQsqaUBKTNV-1" source="ytOCcAaxQ1JO5uOS0aCN-35" target="ytOCcAaxQ1JO5uOS0aCN-36">
          <mxGeometry relative="1" as="geometry" />
        </mxCell>
        <mxCell id="ytOCcAaxQ1JO5uOS0aCN-35" value="Start_Discharging()" style="strokeWidth=2;html=1;shape=mxgraph.flowchart.start_2;whiteSpace=wrap;" vertex="1" parent="WIyWlLk6GJQsqaUBKTNV-1">
          <mxGeometry x="820" y="900" width="120" height="100" as="geometry" />
        </mxCell>
        <mxCell id="ytOCcAaxQ1JO5uOS0aCN-39" value="" style="edgeStyle=orthogonalEdgeStyle;rounded=0;orthogonalLoop=1;jettySize=auto;html=1;" edge="1" parent="WIyWlLk6GJQsqaUBKTNV-1" source="ytOCcAaxQ1JO5uOS0aCN-36" target="ytOCcAaxQ1JO5uOS0aCN-38">
          <mxGeometry relative="1" as="geometry" />
        </mxCell>
        <mxCell id="ytOCcAaxQ1JO5uOS0aCN-36" value="Valve1.Open(x_amt)" style="whiteSpace=wrap;html=1;strokeWidth=2;" vertex="1" parent="WIyWlLk6GJQsqaUBKTNV-1">
          <mxGeometry x="820" y="1050" width="120" height="60" as="geometry" />
        </mxCell>
        <mxCell id="ytOCcAaxQ1JO5uOS0aCN-41" value="" style="edgeStyle=orthogonalEdgeStyle;rounded=0;orthogonalLoop=1;jettySize=auto;html=1;" edge="1" parent="WIyWlLk6GJQsqaUBKTNV-1" source="ytOCcAaxQ1JO5uOS0aCN-38" target="ytOCcAaxQ1JO5uOS0aCN-40">
          <mxGeometry relative="1" as="geometry" />
        </mxCell>
        <mxCell id="ytOCcAaxQ1JO5uOS0aCN-38" value="State=Discharging;" style="whiteSpace=wrap;html=1;strokeWidth=2;" vertex="1" parent="WIyWlLk6GJQsqaUBKTNV-1">
          <mxGeometry x="820" y="1150" width="120" height="60" as="geometry" />
        </mxCell>
        <mxCell id="ytOCcAaxQ1JO5uOS0aCN-40" value="End Loop" style="strokeWidth=2;html=1;shape=mxgraph.flowchart.terminator;whiteSpace=wrap;" vertex="1" parent="WIyWlLk6GJQsqaUBKTNV-1">
          <mxGeometry x="830" y="1240" width="100" height="60" as="geometry" />
        </mxCell>
        <mxCell id="ytOCcAaxQ1JO5uOS0aCN-45" value="" style="edgeStyle=orthogonalEdgeStyle;rounded=0;orthogonalLoop=1;jettySize=auto;html=1;" edge="1" parent="WIyWlLk6GJQsqaUBKTNV-1" source="ytOCcAaxQ1JO5uOS0aCN-43" target="ytOCcAaxQ1JO5uOS0aCN-17">
          <mxGeometry relative="1" as="geometry" />
        </mxCell>
        <mxCell id="ytOCcAaxQ1JO5uOS0aCN-43" value="State=Off;" style="whiteSpace=wrap;html=1;strokeWidth=2;" vertex="1" parent="WIyWlLk6GJQsqaUBKTNV-1">
          <mxGeometry x="350" y="1200" width="120" height="60" as="geometry" />
        </mxCell>
        <mxCell id="ytOCcAaxQ1JO5uOS0aCN-52" value="Yes" style="edgeStyle=orthogonalEdgeStyle;rounded=0;orthogonalLoop=1;jettySize=auto;html=1;" edge="1" parent="WIyWlLk6GJQsqaUBKTNV-1" source="ytOCcAaxQ1JO5uOS0aCN-48" target="ytOCcAaxQ1JO5uOS0aCN-51">
          <mxGeometry relative="1" as="geometry" />
        </mxCell>
        <mxCell id="ytOCcAaxQ1JO5uOS0aCN-54" value="No" style="edgeStyle=orthogonalEdgeStyle;rounded=0;orthogonalLoop=1;jettySize=auto;html=1;exitX=0.5;exitY=1;exitDx=0;exitDy=0;exitPerimeter=0;entryX=0.5;entryY=1;entryDx=0;entryDy=0;entryPerimeter=0;" edge="1" parent="WIyWlLk6GJQsqaUBKTNV-1" source="ytOCcAaxQ1JO5uOS0aCN-48" target="ytOCcAaxQ1JO5uOS0aCN-50">
          <mxGeometry relative="1" as="geometry" />
        </mxCell>
        <mxCell id="ytOCcAaxQ1JO5uOS0aCN-48" value="If Pressure &amp;lt; Max_Pressure" style="strokeWidth=2;html=1;shape=mxgraph.flowchart.decision;whiteSpace=wrap;" vertex="1" parent="WIyWlLk6GJQsqaUBKTNV-1">
          <mxGeometry x="450" y="155" width="100" height="100" as="geometry" />
        </mxCell>
        <mxCell id="ytOCcAaxQ1JO5uOS0aCN-50" value="End Loop" style="strokeWidth=2;html=1;shape=mxgraph.flowchart.terminator;whiteSpace=wrap;" vertex="1" parent="WIyWlLk6GJQsqaUBKTNV-1">
          <mxGeometry x="740" y="175" width="100" height="60" as="geometry" />
        </mxCell>
        <mxCell id="ytOCcAaxQ1JO5uOS0aCN-53" value="" style="edgeStyle=orthogonalEdgeStyle;rounded=0;orthogonalLoop=1;jettySize=auto;html=1;" edge="1" parent="WIyWlLk6GJQsqaUBKTNV-1" source="ytOCcAaxQ1JO5uOS0aCN-51" target="ytOCcAaxQ1JO5uOS0aCN-50">
          <mxGeometry relative="1" as="geometry" />
        </mxCell>
        <mxCell id="ytOCcAaxQ1JO5uOS0aCN-51" value="Start_Charging" style="whiteSpace=wrap;html=1;strokeWidth=2;" vertex="1" parent="WIyWlLk6GJQsqaUBKTNV-1">
          <mxGeometry x="600" y="175" width="120" height="60" as="geometry" />
        </mxCell>
        <mxCell id="ytOCcAaxQ1JO5uOS0aCN-55" value="Yes" style="edgeStyle=orthogonalEdgeStyle;rounded=0;orthogonalLoop=1;jettySize=auto;html=1;" edge="1" parent="WIyWlLk6GJQsqaUBKTNV-1" source="ytOCcAaxQ1JO5uOS0aCN-57" target="ytOCcAaxQ1JO5uOS0aCN-60">
          <mxGeometry relative="1" as="geometry" />
        </mxCell>
        <mxCell id="ytOCcAaxQ1JO5uOS0aCN-56" value="No" style="edgeStyle=orthogonalEdgeStyle;rounded=0;orthogonalLoop=1;jettySize=auto;html=1;exitX=0.5;exitY=1;exitDx=0;exitDy=0;exitPerimeter=0;entryX=0.5;entryY=1;entryDx=0;entryDy=0;entryPerimeter=0;" edge="1" parent="WIyWlLk6GJQsqaUBKTNV-1" source="ytOCcAaxQ1JO5uOS0aCN-57" target="ytOCcAaxQ1JO5uOS0aCN-58">
          <mxGeometry relative="1" as="geometry" />
        </mxCell>
        <mxCell id="ytOCcAaxQ1JO5uOS0aCN-57" value="If Pressure &amp;lt; Max_Pressure" style="strokeWidth=2;html=1;shape=mxgraph.flowchart.decision;whiteSpace=wrap;" vertex="1" parent="WIyWlLk6GJQsqaUBKTNV-1">
          <mxGeometry x="305" y="550" width="100" height="100" as="geometry" />
        </mxCell>
        <mxCell id="ytOCcAaxQ1JO5uOS0aCN-58" value="End Loop" style="strokeWidth=2;html=1;shape=mxgraph.flowchart.terminator;whiteSpace=wrap;" vertex="1" parent="WIyWlLk6GJQsqaUBKTNV-1">
          <mxGeometry x="595" y="570" width="100" height="60" as="geometry" />
        </mxCell>
        <mxCell id="ytOCcAaxQ1JO5uOS0aCN-59" value="" style="edgeStyle=orthogonalEdgeStyle;rounded=0;orthogonalLoop=1;jettySize=auto;html=1;" edge="1" parent="WIyWlLk6GJQsqaUBKTNV-1" source="ytOCcAaxQ1JO5uOS0aCN-60" target="ytOCcAaxQ1JO5uOS0aCN-58">
          <mxGeometry relative="1" as="geometry" />
        </mxCell>
        <mxCell id="ytOCcAaxQ1JO5uOS0aCN-60" value="Start_Charging" style="whiteSpace=wrap;html=1;strokeWidth=2;" vertex="1" parent="WIyWlLk6GJQsqaUBKTNV-1">
          <mxGeometry x="455" y="570" width="120" height="60" as="geometry" />
        </mxCell>
      </root>
    </mxGraphModel>
  </diagram>
  <diagram id="UqUjr6d4yJ0R06ru2xfZ" name="Discharge_Flowchart">
    <mxGraphModel dx="1350" dy="806" grid="1" gridSize="10" guides="1" tooltips="1" connect="1" arrows="1" fold="1" page="1" pageScale="1" pageWidth="850" pageHeight="1100" math="0" shadow="0">
      <root>
        <mxCell id="x9szZuRcZGR7NU5_jWyl-0" />
        <mxCell id="x9szZuRcZGR7NU5_jWyl-1" parent="x9szZuRcZGR7NU5_jWyl-0" />
      </root>
    </mxGraphModel>
  </diagram>
  <diagram id="72QfJe5bYpR5y07a5OMH" name="Main_Loop_Flowchart">
    <mxGraphModel dx="1350" dy="806" grid="1" gridSize="10" guides="1" tooltips="1" connect="1" arrows="1" fold="1" page="1" pageScale="1" pageWidth="850" pageHeight="1100" math="0" shadow="0">
      <root>
        <mxCell id="CWvUaUW_ndaUqIzaeWzM-0" />
        <mxCell id="CWvUaUW_ndaUqIzaeWzM-1" parent="CWvUaUW_ndaUqIzaeWzM-0" />
      </root>
    </mxGraphModel>
  </diagram>
  <diagram id="LS5iQAaVzaX-QsfeMiO8" name="Action_Class_Flowchart">
    <mxGraphModel dx="1350" dy="806" grid="1" gridSize="10" guides="1" tooltips="1" connect="1" arrows="1" fold="1" page="1" pageScale="1" pageWidth="850" pageHeight="1100" math="0" shadow="0">
      <root>
        <mxCell id="CPVS4_SFNDoE5jGqFonV-0" />
        <mxCell id="CPVS4_SFNDoE5jGqFonV-1" parent="CPVS4_SFNDoE5jGqFonV-0" />
      </root>
    </mxGraphModel>
  </diagram>
</mxfile>
